<!-- Bugsby Mascot SVG Placeholder -->
<svg width="48" height="48" viewBox="0 0 48 48" fill="none" xmlns="http://www.w3.org/2000/svg">
  <!-- Bug body -->
  <ellipse cx="24" cy="26" rx="14" ry="10" fill="#4F46E5"/>
  
  <!-- Bug head -->
  <circle cx="24" cy="16" r="8" fill="#7C3AED"/>
  
  <!-- Eyes -->
  <circle cx="20" cy="14" r="2" fill="white"/>
  <circle cx="28" cy="14" r="2" fill="white"/>
  <circle cx="20" cy="14" r="1" fill="black"/>
  <circle cx="28" cy="14" r="1" fill="black"/>
  
  <!-- Antennae -->
  <line x1="20" y1="8" x2="18" y2="4" stroke="#7C3AED" stroke-width="2" stroke-linecap="round"/>
  <line x1="28" y1="8" x2="30" y2="4" stroke="#7C3AED" stroke-width="2" stroke-linecap="round"/>
  <circle cx="18" cy="4" r="1.5" fill="#EC4899"/>
  <circle cx="30" cy="4" r="1.5" fill="#EC4899"/>
  
  <!-- Wings -->
  <ellipse cx="15" cy="20" rx="4" ry="8" fill="#E0E7FF" opacity="0.8"/>
  <ellipse cx="33" cy="20" rx="4" ry="8" fill="#E0E7FF" opacity="0.8"/>
  
  <!-- Legs -->
  <line x1="16" y1="32" x2="12" y2="40" stroke="#4F46E5" stroke-width="2" stroke-linecap="round"/>
  <line x1="20" y1="34" x2="16" y2="42" stroke="#4F46E5" stroke-width="2" stroke-linecap="round"/>
  <line x1="24" y1="36" x2="24" y2="44" stroke="#4F46E5" stroke-width="2" stroke-linecap="round"/>
  <line x1="28" y1="34" x2="32" y2="42" stroke="#4F46E5" stroke-width="2" stroke-linecap="round"/>
  <line x1="32" y1="32" x2="36" y2="40" stroke="#4F46E5" stroke-width="2" stroke-linecap="round"/>
  
  <!-- Smile -->
  <path d="M 20 18 Q 24 22 28 18" stroke="#4F46E5" stroke-width="1.5" fill="none" stroke-linecap="round"/>
</svg>
